<?xml version="1.0" encoding="utf-8"?>
<!-- Generator: Adobe Illustrator 25.2.0, SVG Export Plug-In . SVG Version: 6.00 Build 0)  -->
<svg version="1.1" xmlns="http://www.w3.org/2000/svg" xmlns:xlink="http://www.w3.org/1999/xlink" x="0px" y="0px"
	 viewBox="0 0 1000 1000" style="enable-background:new 0 0 1000 1000;" xml:space="preserve">
<style type="text/css">
	.st0{display:none;}
	.st1{fill:none;stroke:#000000;stroke-width:100;stroke-linecap:round;stroke-linejoin:round;stroke-miterlimit:10;}
	.st2{display:inline;}
	.st3{fill:#E3E5E5;}
	.st4{fill:#B1CBCA;}
	.st5{fill:#E8911A;}
	.st6{fill:#BA1A1A;}
</style>
<g id="arrow_x5F_down" class="st0">
	<polyline class="st1" points="944.35,277.82 500,722.18 55.65,277.82 	"/>
	<g class="st2">
		<path class="st3" d="M500,333.33c-8.12,0-15.91-3.23-21.65-8.97l-272.1-272.1c-11.96-11.96-11.96-31.34,0-43.3
			c11.96-11.96,31.34-11.96,43.3,0L500,259.42L750.45,8.97c11.96-11.96,31.34-11.96,43.3,0c11.96,11.96,11.96,31.34,0,43.3
			l-272.1,272.1C515.91,330.11,508.12,333.33,500,333.33z"/>
		<path class="st4" d="M500,666.67c-8.12,0-15.91-3.23-21.65-8.97l-272.1-272.1c-11.96-11.96-11.96-31.34,0-43.3
			c11.96-11.96,31.34-11.96,43.3,0L500,592.75L750.45,342.3c11.96-11.96,31.34-11.96,43.3,0c11.96,11.96,11.96,31.34,0,43.3
			l-272.1,272.1C515.91,663.44,508.12,666.67,500,666.67z"/>
		<path class="st5" d="M500,1000c-8.12,0-15.91-3.23-21.65-8.97l-272.1-272.1c-11.96-11.96-11.96-31.34,0-43.3
			c11.96-11.96,31.34-11.96,43.3,0L500,926.08l250.45-250.45c11.96-11.96,31.34-11.96,43.3,0c11.96,11.96,11.96,31.34,0,43.3
			l-272.1,272.1C515.91,996.77,508.12,1000,500,1000z"/>
	</g>
</g>
<g id="arrow_x5F_right">
	<path class="st6" d="M277.82,994.35c-12.8,0-25.59-4.88-35.36-14.64c-19.53-19.53-19.53-51.18,0-70.71l409-409l-409-409
		c-19.53-19.53-19.53-51.18,0-70.71c19.53-19.52,51.18-19.53,70.71,0l444.35,444.35c9.38,9.38,14.64,22.09,14.64,35.36
		s-5.27,25.98-14.64,35.36L313.18,979.71C303.42,989.47,290.62,994.35,277.82,994.35z"/>
</g>
</svg>
