<?xml version="1.0" encoding="utf-8"?>
<!-- Generator: Adobe Illustrator 26.4.1, SVG Export Plug-In . SVG Version: 6.00 Build 0)  -->
<svg version="1.1" id="Ebene_1" xmlns="http://www.w3.org/2000/svg" xmlns:xlink="http://www.w3.org/1999/xlink" x="0px" y="0px"
	 viewBox="0 0 1000 1000" style="enable-background:new 0 0 1000 1000;" xml:space="preserve">
<style type="text/css">
	.st0{fill:#0C0C0C;}
	.st1{display:none;fill:#D9D9D9;}
	.st2{display:none;}
	.st3{display:inline;}
	.st4{fill:#D9D9D9;}
</style>
<rect y="0" class="st0" width="1000" height="1000"/>
<path class="st1" d="M673.94,291.96H539.02h-0.8h-1.07h-47.2v1.92h46.54L443.27,564.6L342.95,291.96h-97.63h-0.54h-42.65v1.92h41.58
	v406.78h-38.89v1.92h82.35v-1.92h-41.84v-407.2l148.6,414.59h2.41L538.22,294.3v406.35H495.3h-5.35v1.92h5.35h178.64h16.1v-1.92
	h-16.1H636.4V499.18h8.32c12.88,0,24.5,3.52,34.87,10.54c10.37,7.03,19.27,16.11,26.69,27.24c7.42,11.13,13.1,22.81,17.03,35.04
	h2.15V427.46h-2.15c-3.94,12.23-9.61,23.68-17.03,34.35c-7.42,10.68-16.32,19.3-26.69,25.87c-10.37,6.57-21.99,9.85-34.87,9.85
	h-8.32V293.87h37.54h12.61c19.67,0,36.92,5.11,51.77,15.33c14.84,10.22,27.23,23.73,37.15,40.51c9.92,16.79,16.85,34.95,20.79,54.47
	h1.61V291.96H673.94z"/>
<g class="st2">
	<g class="st3">
		<g>
			<g>
				<path class="st4" d="M245.23,241.91v392.7h38.23v19.8h-98.18v-19.8h38.5v-372.9h-41.25v-19.8H245.23z M387.68,659.91l-152.9-418
					h93.5l105.6,285.72l96.25-285.72h22l-141.62,418H387.68z M678.08,241.91v19.8h-39.05v372.9h39.05v19.8H502.63v-19.8h44v-392.7
					H678.08z"/>
			</g>
		</g>
	</g>
	<g class="st3">
		<g>
			<path class="st4" d="M809.23,241.91v112.75h-20.08c-3.48-19.62-9.12-36.34-16.91-50.19c-7.79-13.84-18.38-24.43-31.76-31.76
				c-13.38-7.33-30.25-11-50.6-11h-51.7v372.9h54.72v19.8H495.45v-19.8h49.77v-372.9h-49.77v-19.8H809.23z M713.8,520.49
				c-3.48-12.28-8.07-22.96-13.75-32.04c-5.68-9.08-13.11-16.13-22.28-21.18c-9.17-5.04-20.53-7.56-34.1-7.56h-36.03v-20.9h36.03
				c13.57,0,24.93-2.24,34.1-6.74c9.17-4.49,16.59-11,22.28-19.52c5.68-8.53,10.27-18.93,13.75-31.21h20.08v139.15H713.8z"/>
		</g>
	</g>
</g>
<path class="st4" d="M682.2,291L682.2,291l-125.95,0h-5.5h-16.5l0,0h-34.67v19.8h28L438,576.72L332.4,291h-83.05H238.9h-52.25v19.8
	h41.25v372.9h-38.5v19.8h98.18v-19.8h-38.23V319.57L391.8,709h22.83l134.73-397.64V683.7h-42.6v0h-7.17v19.8h197.45v-19.8H682.2v0
	h-39.05V508.8h4.65c13.57,0,24.93,2.52,34.1,7.56c9.17,5.04,16.59,12.1,22.28,21.18c5.68,9.07,10.27,19.76,13.75,32.04H738V430.43
	h-20.08c-3.48,12.29-8.07,22.69-13.75,31.21c-5.68,8.52-13.11,15.03-22.28,19.52c-9.17,4.49-20.53,6.74-34.1,6.74h-4.65V310.8H694
	c20.35,0,37.21,3.67,50.6,11c13.38,7.33,23.97,17.92,31.76,31.76c7.79,13.84,13.43,30.57,16.91,50.19h20.08V291H682.2z"/>
</svg>
