<svg xmlns="http://www.w3.org/2000/svg" viewBox="0 0 1000 175.19"><defs><style>.cls-1{fill:#f5f6f7;}.cls-2{fill:#ba1a1a;}.cls-3{fill:#e8911a;}</style></defs><g id="Layer_2" data-name="Layer 2"><g id="long"><path class="cls-1" d="M282,154.87H252.7l-38-43.59H191v43.59h-24.6V24.27c20.69,0,41.38.19,62.06.19,30.75.19,47,20.68,47,43.22,0,17.89-8.2,36-33,41L282,153.2ZM191,47.38V89.11h37.46c15.66,0,22.37-10.43,22.37-20.87s-6.9-20.86-22.37-20.86Z"/><path class="cls-1" d="M314.23,154.55H288.7L234.46,24.41h27.59L301.37,125.3,340.88,24.41h27.58Z"/><path class="cls-2" d="M340.88,154.87V24.41h24.41V154.87Z"/><path class="cls-1" d="M449.16,24.27h24.6v130.6H458.48v.19L389.9,66.94v87.93H365.29V24.46h19.95l63.92,80.86Z"/><path class="cls-3" d="M473.76,155.25h88v19.94h-88Z"/><path class="cls-1" d="M650.44,154.78v-52.7H586.33v52.7h-24.6V24.41h24.6v55h64.11V24.41h24.42V154.78Z"/><path class="cls-1" d="M772.65,24.44V132.16h67.09V154.9H748.05V24.44Z"/><path class="cls-1" d="M839.66,24.41V132.16h55.08l32.79,7.22,8.23,15.52H815.06V24.41Z"/><path class="cls-1" d="M1000,90.19c-.36,32.34-20.19,64.68-64.15,64.68s-64.33-31.62-64.33-64.5,21.09-65.93,64.33-65.93C978.91,24.44,1000.35,57.49,1000,90.19Zm-105.25.54c.54,20.55,11.62,42.52,41.1,42.52s40.56-22.15,40.92-42.7c.35-21.08-11.44-44.67-40.92-44.67S894.22,69.64,894.75,90.73Z"/><path class="cls-1" d="M134.41,24.27h-.1L121,51.52,92.65,116.64H66.23L49.06,155H75.71l11.18-24.65H155.1l11.31,24.51,0-59.07ZM96.77,107.39,121,51.73l24.22,55.66Z"/><polygon class="cls-2" points="121 51.73 134.41 24.27 107.58 24.27 78.3 89.67 28.33 24.41 0 24.41 0 154.87 24.6 154.87 24.6 60.01 66.16 116.85 92.65 116.85 121 51.73"/><polygon class="cls-2" points="191.01 150.72 166.43 95.8 166.41 154.87 191.01 154.87 191.01 150.72"/><polygon class="cls-2" points="78.3 89.67 66.16 116.85 24.6 60.01 24.6 154.87 0 154.87 0 24.41 29.66 24.41 78.3 89.67"/><path class="cls-2" d="M234.71,24.87l30.1,72.3.1,0c7.61-8,10.53-18.72,10.53-29.39C275.44,46.79,261.41,27.61,234.71,24.87Z"/><rect class="cls-3" x="340.88" width="24.41" height="24.41"/><rect class="cls-2" x="674.86" y="132.16" width="73.19" height="22.74"/><polyline class="cls-2" points="748.05 48.29 748.05 24.44 674.86 24.44 674.86 48.29"/><rect class="cls-2" x="674.86" y="78.3" width="73.19" height="22.92"/><rect class="cls-2" x="674.73" y="24.41" width="73.19" height="22.74"/><path class="cls-2" d="M914.38,155.1H674.86V132.16H925.54a53.49,53.49,0,0,0,20.59,0h40.12c-10.43,13.45-27,22.62-50.4,22.62Z"/></g></g></svg>