<?xml version="1.0" encoding="utf-8"?>
<!-- Generator: Adobe Illustrator 25.1.0, SVG Export Plug-In . SVG Version: 6.00 Build 0)  -->
<svg version="1.1" xmlns="http://www.w3.org/2000/svg" xmlns:xlink="http://www.w3.org/1999/xlink" x="0px" y="0px"
	 viewBox="0 0 1000 1000" style="enable-background:new 0 0 1000 1000;" xml:space="preserve">
<style type="text/css">
	.st0{display:none;}
	.st1{display:inline;}
	.st2{fill:#B1CBCA;}
	.st3{fill:#BA1A1A;}
	.st4{fill:#E8911A;}
</style>
<g id="old" class="st0">
	<path class="st1" d="M476.43,452.89L56.9,33.37C35.9,12.37,0,27.24,0,56.94v886.19c0,18.41,14.92,33.33,33.33,33.33h933.33
		c18.41,0,33.33-14.92,33.33-33.33V56.94c0-29.7-35.9-44.57-56.9-23.57L523.57,452.89C510.55,465.91,489.45,465.91,476.43,452.89z"
		/>
</g>
<g id="long" class="st0">
	<g class="st1">
		<path class="st2" d="M281.96,567.28H252.7l-38.02-43.6h-23.67v43.6h-24.6v-130.6c20.69,0,41.37,0.19,62.06,0.19
			c30.75,0.19,46.97,20.68,46.97,43.22c0,17.89-8.2,35.96-32.99,40.99l39.51,44.53V567.28z M191.01,459.78v41.73h37.46
			c15.65,0,22.36-10.43,22.36-20.87c0-10.43-6.9-20.87-22.36-20.87H191.01z"/>
		<path class="st2" d="M314.23,566.95H288.7l-54.23-130.13h27.58l39.32,100.89l39.51-100.89h27.58L314.23,566.95z"/>
		<path class="st3" d="M340.88,567.28V436.82h24.41v130.46H340.88z"/>
		<path class="st2" d="M449.16,436.68h24.6v130.6h-15.28v0.19l-68.59-88.12v87.94h-24.6V436.87h19.94l63.93,80.86V436.68z"/>
		<path class="st4" d="M473.76,567.65h87.97v19.94h-87.97V567.65z"/>
		<path class="st2" d="M650.44,567.19v-52.71h-64.11v52.71h-24.6V436.82h24.6v54.94h64.11v-54.94h24.41v130.37H650.44z"/>
		<path class="st2" d="M772.65,436.84v107.72h67.09v22.74h-91.69V436.84H772.65z"/>
		<path class="st2" d="M839.66,436.82v107.74h55.07l32.79,7.22l8.23,15.52h-120.7V436.82H839.66z"/>
		<path class="st2" d="M1000,502.6c-0.36,32.34-20.19,64.68-64.15,64.68c-43.96,0-64.33-31.63-64.33-64.5
			c0-32.88,21.08-65.93,64.33-65.93C978.91,436.84,1000.35,469.9,1000,502.6z M894.75,503.13c0.54,20.55,11.61,42.53,41.1,42.53
			c29.48,0,40.56-22.16,40.92-42.7c0.36-21.08-11.44-44.67-40.92-44.67C906.37,458.29,894.22,482.05,894.75,503.13z"/>
		<path class="st2" d="M134.41,436.68h-0.1L121,463.93l-28.35,65.12H66.23l-17.17,38.37h26.65l11.18-24.65h68.21l11.31,24.51
			l0.02-59.08L134.41,436.68z M96.77,519.79L121,464.14l24.23,55.66H96.77z"/>
		<polygon class="st3" points="121,464.14 134.41,436.68 107.58,436.68 78.3,502.07 28.33,436.82 0,436.82 0,567.28 24.6,567.28 
			24.6,472.42 66.16,529.26 92.65,529.26 		"/>
		<polygon class="st3" points="191.01,563.13 166.43,508.2 166.41,567.28 191.01,567.28 		"/>
		<polygon class="st3" points="78.3,502.07 66.16,529.26 24.6,472.42 24.6,567.28 0,567.28 0,436.82 29.66,436.82 		"/>
		<path class="st3" d="M234.71,437.28l30.1,72.3l0.1-0.04c7.61-7.99,10.53-18.72,10.53-29.38
			C275.44,459.2,261.41,440.01,234.71,437.28z"/>
		<rect x="340.88" y="412.41" class="st4" width="24.41" height="24.41"/>
		<g>
			<rect x="674.86" y="544.56" class="st3" width="73.19" height="22.74"/>
			<polyline class="st3" points="748.05,460.7 748.05,436.84 674.86,436.84 674.86,460.7 			"/>
			<rect x="674.86" y="490.7" class="st3" width="73.19" height="22.92"/>
		</g>
		<rect x="674.73" y="436.82" class="st3" width="73.19" height="22.74"/>
		<path class="st3" d="M914.38,567.5H674.86v-22.94h210.12h29.4h11.16c3.15,0.65,6.58,1.01,10.31,1.01c3.71,0,7.13-0.35,10.28-1.01
			h40.12c-10.43,13.46-26.99,22.63-50.4,22.63L914.38,567.5z"/>
	</g>
</g>
<g id="medium">
	<g>
		<path class="st2" d="M595.15,663.25h-61.76l-80.25-92.02h-49.96v92.02h-51.93V387.59c43.67,0,87.33,0.39,131,0.39
			c64.91,0.39,99.13,43.65,99.13,91.23c0,37.75-17.31,75.9-69.63,86.51l83.4,93.99V663.25z M403.18,436.35v88.09h79.07
			c33.04,0,47.21-22.02,47.21-44.04c0-22.02-14.56-44.04-47.21-44.04H403.18z"/>
		<path class="st2" d="M663.26,662.56h-53.89L494.89,387.89h58.22l83,212.95l83.4-212.95h58.22L663.26,662.56z"/>
		<path class="st3" d="M719.52,663.25V387.89h51.53v275.37H719.52z"/>
		<path class="st2" d="M948.07,387.59H1000v275.66h-32.26v0.39l-144.77-186v185.61h-51.93V387.98h42.09l134.93,170.67V387.59z"/>
		<path class="st2" d="M283.72,387.59h-0.22l-28.11,57.51l-59.84,137.46H139.8l-36.25,80.99h56.25l23.6-52.04h143.98l23.87,51.74
			l0.03-124.7L283.72,387.59z M204.25,563.02l51.14-117.48l51.14,117.48H204.25z"/>
		<polygon class="st3" points="255.39,445.54 283.72,387.59 227.07,387.59 165.26,525.61 59.79,387.89 0,387.89 0,663.25 
			51.93,663.25 51.93,463.02 139.65,583 195.55,583 		"/>
		<polygon class="st3" points="403.18,654.49 351.29,538.56 351.26,663.25 403.18,663.25 		"/>
		<polygon class="st3" points="165.26,525.61 139.65,583 51.93,463.02 51.93,663.25 0,663.25 0,387.89 62.61,387.89 		"/>
		<path class="st3" d="M495.42,388.85l63.53,152.61l0.21-0.08c16.06-16.87,22.22-39.52,22.22-62.02
			C581.38,435.11,551.77,394.63,495.42,388.85z"/>
		<rect x="719.52" y="336.35" class="st4" width="51.53" height="51.53"/>
	</g>
</g>
<g id="short" class="st0">
	<g class="st1">
		<path class="st3" d="M497.33,445.26L336.25,715.83h-57.08L118.86,452.3v321.39H0V226.31h104.79l204.88,340.16l188.31-340.16"/>
		<path class="st2" d="M1000,226.31v547.37H873.32V549.27H624.65v224.42H497.97V226.31h126.68v215.82h248.66V226.31H1000z"/>
	</g>
</g>
</svg>
